<svg id="visual" viewBox="0 0 1800 800" width="1800" height="800" xmlns="http://www.w3.org/2000/svg" xmlns:xlink="http://www.w3.org/1999/xlink" version="1.1"><path d="M0 459L75 469.5C150 480 300 501 450 518.8C600 536.7 750 551.3 900 552.7C1050 554 1200 542 1350 529.3C1500 516.7 1650 503.3 1725 496.7L1800 490L1800 801L1725 801C1650 801 1500 801 1350 801C1200 801 1050 801 900 801C750 801 600 801 450 801C300 801 150 801 75 801L0 801Z" fill="#7629d3"></path><path d="M0 581L75 589.2C150 597.3 300 613.7 450 614.3C600 615 750 600 900 593C1050 586 1200 587 1350 598.5C1500 610 1650 632 1725 643L1800 654L1800 801L1725 801C1650 801 1500 801 1350 801C1200 801 1050 801 900 801C750 801 600 801 450 801C300 801 150 801 75 801L0 801Z" fill="#5c26cd"></path><path d="M0 737L75 739C150 741 300 745 450 731.8C600 718.7 750 688.3 900 673.5C1050 658.7 1200 659.3 1350 663.2C1500 667 1650 674 1725 677.5L1800 681L1800 801L1725 801C1650 801 1500 801 1350 801C1200 801 1050 801 900 801C750 801 600 801 450 801C300 801 150 801 75 801L0 801Z" fill="#3d24c7"></path></svg>